<?xml version="1.0" encoding="utf-8"?>
<!-- Generator: Adobe Illustrator 25.1.0, SVG Export Plug-In . SVG Version: 6.00 Build 0)  -->
<svg version="1.1" id="Lager_1" xmlns="http://www.w3.org/2000/svg" xmlns:xlink="http://www.w3.org/1999/xlink" x="0px" y="0px"
	 viewBox="0 0 566.93 566.93" style="enable-background:new 0 0 566.93 566.93;" xml:space="preserve">
<style type="text/css">
	.st0{fill:#EFEFEF;}
	.st1{font-family:'Noteworthy-Light';}
	.st2{font-size:116.7418px;}
</style>
<g id="Lager_2_1_">
	<g>
		<g>
			<path class="st0" d="M449.57,373c0.42-0.96,0.85-1.92,0.93-3.02c0.02-0.25,0.06-0.48,0.1-0.71
				c-12.09-15.8-30.19-26.36-49.78-29.68c-11.4-1.93-23.05-1.65-34.38,0.63c-2.91,0.59-5.8,1.31-8.65,2.16
				c-2.25,0.67-5.29,2.07-7.14-0.07c-1.43-1.66-2.17-3.92-3.34-5.77c-1.31-2.08-2.86-4.03-4.58-5.78
				c-15.37-15.64-39.86-14.8-59.94-11.99c-17.44,2.44-36.03,8.49-47.02,23.11c-0.67,0.89-1.29,1.8-1.88,2.74
				c-11.6-10.42-26.91-16.43-42.51-16.81c-15.75-0.39-34.76,5.14-42.66,20.02c-0.87,1.63-1.56,3.36-2.11,5.13
				c0.03,0.14,0.06,0.27,0.08,0.41c1.04,1.3,1.9,2.84,2.62,4.33c0.43,0.33,0.8,0.75,1.09,1.24c0.25-2.61,0.94-5.19,2.07-7.58
				c3.19-6.74,9.32-11.47,16.03-14.41c13.56-5.95,29.64-5.25,43.3-0.06c7.81,2.96,14.95,7.6,20.86,13.49
				c1.1,1.1,3.17,0.93,3.93-0.51c8.07-15.26,24.95-22.1,41.07-25.23c9.56-1.85,19.51-2.72,29.25-2.39
				c10.07,0.34,20.29,2.6,28.49,8.73c3.58,2.68,6.58,6.07,8.69,10.02c0.93,1.75,1.76,3.58,3.16,5.02c1.94,1.99,4.55,2.64,7.25,2.3
				c2.46-0.32,4.83-1.24,7.22-1.88c2.87-0.77,5.78-1.41,8.71-1.91c5.41-0.93,10.92-1.33,16.41-1.25
				c19.77,0.31,39.12,7.63,53.27,21.6c2.9,2.86,5.6,6.02,8,9.41C448.49,373.77,448.98,373.33,449.57,373z"/>
			<path class="st0" d="M477.28,449.38c-2.9-9.22-8.18-17.94-15.98-23.8c-2.25-1.69-4.73-3.08-7.35-4.1
				c5.87-5.23,8.9-13.3,8.86-21.18c-0.01-0.99-0.07-1.98-0.15-2.97c-0.04,0.08-0.06,0.15-0.1,0.23c-0.6,1.18-1.26,2-2.15,2.97
				c-0.25,0.27-0.54,0.51-0.85,0.7c-0.52,0.81-1.22,1.38-2,1.75c-0.68,7.08-3.94,13.75-10.63,17.28c-1.83,0.96-1.51,4.16,0.6,4.57
				c19.36,3.77,28.3,27.03,27.36,44.69c-0.54,10.14-4.75,19.49-12.46,26.16c-7.13,6.16-16.58,9.74-25.9,10.68
				c-11.79,1.19-23.55-1.15-34.72-4.83c-5.07-1.67-10.59-4.85-16.08-4.08c-4.85,0.68-8.49,4.26-11.64,7.73
				c-6.44,7.11-13.73,12.76-22.75,16.25c-9.01,3.49-18.7,4.92-28.34,4.4c-20.41-1.11-39.48-11.36-54.46-24.81
				c-1.99-1.79-3.92-3.65-5.81-5.56c-1.68-1.69-3.48-3.34-5.91-3.75c-2.79-0.47-5.31,0.81-7.66,2.17c-2.44,1.41-4.9,2.77-7.42,4.04
				c-9.99,5.02-20.89,8.76-32.09,9.62c-18.54,1.42-38.85-6.13-47.92-23.29c-2.06-3.89-2.75-8.31-4.82-12.17
				c-0.98-1.83-2.4-3.5-4.27-4.45c-2.46-1.25-5.12-0.95-7.78-0.97c-8.76-0.09-17.21-3.21-24.36-8.2
				c-14.33-9.99-23.36-28.13-19.36-45.59c3.13-13.68,13.08-25.37,25.63-31.52c-0.66-1.5-1.17-3.11-1.56-4.78
				c-9.31,4.42-17.37,11.61-22.8,20.35c-4.91,7.9-7.65,17.25-7.19,26.58c0.46,9.32,3.85,18.39,9.27,25.95
				c5.44,7.58,12.76,13.89,21.27,17.78c4.2,1.92,8.59,3.3,13.17,3.95c2.32,0.33,4.65,0.51,7,0.48c2.51-0.04,4.67-0.19,6.18,2.1
				c1.19,1.8,1.74,3.95,2.39,5.98c0.72,2.25,1.6,4.45,2.68,6.56c2.16,4.24,5.14,8.11,8.56,11.41c6.94,6.68,15.85,11.31,25.21,13.5
				c10.81,2.53,22.21,1.73,32.89-1.07c5.77-1.51,11.37-3.64,16.78-6.13c2.67-1.23,5.29-2.56,7.86-3.97c1.28-0.7,2.53-1.45,3.79-2.16
				c1.12-0.64,2.51-1.51,3.85-1.22c2.17,0.48,4.2,3.48,5.73,4.95c1.93,1.86,3.93,3.66,5.98,5.39c4.1,3.47,8.43,6.69,12.96,9.56
				c9.07,5.75,19.11,10.19,29.62,12.52c19.63,4.35,41.51,1.02,57.71-11.34c4.08-3.11,7.36-6.81,10.89-10.5
				c1.62-1.69,3.39-3.43,5.59-4.35c2.47-1.04,4.97-0.43,7.39,0.42c11.68,4.11,23.28,7.89,35.78,8.32
				c20.66,0.71,42.82-9.03,49.87-29.75C481.17,471.49,480.54,459.75,477.28,449.38z"/>
		</g>
	</g>
	<text transform="matrix(0.825 0 0 1 17.1499 481.7885)" class="st1 st2">Meerkatologist</text>
</g>
<g id="Lager_1_1_">
	<g>
		<g>
			<path class="st0" d="M248.04,43.46c-11.54,1.72-21.59,8.61-30.49,15.76c-8.33,6.7-15.94,14.57-21.43,23.8
				c-3.04,5.12-5.39,10.68-6.78,16.47c-0.75,3.13,4.07,4.46,4.82,1.33c2.32-9.71,7.48-18.42,14.04-25.88
				c6.82-7.75,15.01-14.59,23.83-19.96c5.36-3.27,11.1-5.78,17.34-6.71c1.34-0.2,2.07-1.89,1.75-3.08
				C250.72,43.78,249.38,43.26,248.04,43.46L248.04,43.46z"/>
		</g>
	</g>
	<g>
		<g>
			<path class="st0" d="M252.07,46.23c1.85-6.02,5.46-11.25,10.31-15.24c-1.39-0.81-2.79-1.62-4.18-2.43
				c-1.28,4.8-1.49,9.67-0.8,14.57c0.27,1.94,2.98,2.3,4.18,1.1c1.98-1.96,4.13-3.65,6.5-5.1c-1.14-0.3-2.28-0.6-3.42-0.9
				c1.13,2.28,2.7,4.33,4.59,6.04c1.26,1.13,2.99,0.87,3.93-0.51c3.26-4.75,7.72-8.5,12.87-11.05c-1.14-1.14-2.28-2.28-3.42-3.42
				c-2.53,5.11-2.57,10.85-0.21,16.02c0.65,1.43,2.93,1.63,3.93,0.51c2-2.26,3.85-4.66,5.53-7.17c-1.31,0.17-2.62,0.34-3.93,0.51
				c0.84,0.98,1.69,1.96,2.53,2.94c0.79,0.92,1.54,1.96,2.75,2.34c2.57,0.81,4.92-1.97,6.74-3.4c-1.31-0.17-2.62-0.34-3.93-0.51
				c0.52,0.84,0.78,1.64,0.79,2.63c0.04,2.72,4.35,3.52,4.91,0.66c0.48-2.46,2.84-4.33,4.45-6.09c2.05-2.25,4.11-4.49,6.16-6.74
				c-1.39-0.37-2.79-0.74-4.18-1.1c1.05,4.76,2.1,9.52,3.15,14.28c0.69,3.14,5.51,1.81,4.82-1.33c-1.05-4.76-2.1-9.52-3.15-14.28
				c-0.4-1.81-2.94-2.46-4.18-1.1c-2.28,2.49-4.55,4.98-6.83,7.47c-2.03,2.23-4.47,4.49-5.07,7.57c1.64,0.22,3.27,0.44,4.91,0.66
				c-0.03-1.84-0.5-3.58-1.47-5.15c-0.92-1.49-2.66-1.51-3.93-0.51c-0.56,0.45-1.13,0.89-1.69,1.34c-0.35,0.27-0.8,0.79-1.22,0.85
				c0.44,0,0.89,0,1.33,0c0.39,0.29,0.43,0.28,0.11-0.03c-0.11-0.12-0.21-0.24-0.32-0.37c-0.37-0.43-0.74-0.86-1.11-1.29
				c-0.69-0.8-1.37-1.59-2.06-2.39c-1.11-1.29-3.1-0.74-3.93,0.51c-1.44,2.16-3.02,4.21-4.74,6.16c1.31,0.17,2.62,0.34,3.93,0.51
				c-1.57-3.44-1.46-7.6,0.21-10.98c1.13-2.28-1.14-4.55-3.42-3.42c-5.93,2.93-10.93,7.39-14.66,12.84
				c1.31-0.17,2.62-0.34,3.93-0.51c-1.61-1.45-2.85-3.08-3.81-5.02c-0.59-1.19-2.33-1.56-3.42-0.9c-2.72,1.66-5.25,3.64-7.52,5.89
				c1.39,0.37,2.79,0.74,4.18,1.1c-0.56-3.98-0.23-8.04,0.8-11.92c0.69-2.57-2.33-3.95-4.18-2.43c-5.5,4.52-9.51,10.65-11.6,17.44
				C246.3,47.99,251.12,49.31,252.07,46.23L252.07,46.23z"/>
		</g>
	</g>
	<g>
		<g>
			<path class="st0" d="M381.16,89.56c-5.85-9.36-14.08-16.91-22.09-24.39c-7.83-7.31-16.15-14.54-26.04-18.93
				c-6.07-2.69-12.49-4.25-19.13-4.63c-3.21-0.18-3.2,4.82,0,5c10.65,0.61,20.26,4.91,28.79,11.15c4.08,2.99,7.88,6.35,11.59,9.78
				c3.83,3.54,7.64,7.12,11.31,10.83c4.17,4.22,8.09,8.68,11.25,13.72C378.54,94.81,382.87,92.3,381.16,89.56L381.16,89.56z"/>
		</g>
	</g>
	<g>
		<g>
			<path class="st0" d="M386.21,143.67c7.54-2.74,15.15-6.28,21.52-11.21c5.97-4.63,9.53-11.31,10.32-18.8
				c1.49-14.02-8.71-28.62-22.92-30.87c-6.88-1.09-14.95,0.85-18.45,7.42c-1.51,2.84,2.8,5.37,4.32,2.52
				c2.36-4.42,7.79-5.7,12.46-5.17c5.26,0.6,10.17,3.63,13.67,7.5c8.31,9.18,8.12,24.24-1.33,32.54c-2.86,2.51-6.29,4.43-9.63,6.21
				c-3.64,1.94-7.41,3.62-11.29,5.03c-1.27,0.46-2.12,1.7-1.75,3.08C383.47,143.15,384.93,144.13,386.21,143.67L386.21,143.67z"/>
		</g>
	</g>
	<g>
		<g>
			<path class="st0" d="M385.55,143.79c4.43,1.91,8.49,4.54,12.13,7.71c3.62,3.15,7.07,6.68,9.5,10.85c2.43,4.17,3.67,9,4.67,13.69
				c0.96,4.5,1.47,9.08,1.27,13.68c-0.18,4.36-1.09,8.77-3.06,12.68c-2.26,4.48-5.87,8.14-9.16,11.87
				c-6.48,7.35-13.27,14.51-21.24,20.28c-8.36,6.05-17.76,10.6-28.02,12.2c-1.34,0.21-2.07,1.88-1.75,3.08
				c0.39,1.42,1.74,1.96,3.08,1.75c20.35-3.18,36.59-17.09,49.86-31.96c3.62-4.06,7.62-8.09,10.46-12.75
				c2.58-4.23,3.97-9.02,4.56-13.91c0.6-5,0.24-10.04-0.58-14.99c-0.83-5.04-2.1-10.11-4.12-14.8c-2.32-5.4-6.23-9.95-10.51-13.91
				c-4.31-3.99-9.17-7.45-14.58-9.78c-1.24-0.53-2.68-0.37-3.42,0.9C384.04,141.42,384.3,143.25,385.55,143.79L385.55,143.79z"/>
		</g>
	</g>
	<g>
		<g>
			<path class="st0" d="M352.44,246.26c-4.25,0.96-6.7,5.07-7.08,9.17c-0.38,4.12,1.53,8.12,4.23,11.12
				c6.38,7.09,16.17,7.54,25.01,8.41c9.77,0.96,19.2,3.84,28.49,6.89c8.87,2.91,17.71,6.2,25.55,11.36
				c7.45,4.9,14.05,11.77,17.16,20.26c0.46,1.27,1.7,2.13,3.08,1.75c1.22-0.34,2.21-1.8,1.75-3.08
				c-6.08-16.57-21.72-26.1-37.47-32.06c-8.71-3.3-17.73-6.23-26.82-8.26c-4.6-1.03-9.25-1.65-13.95-2.07
				c-4.41-0.4-8.9-0.8-13.06-2.43c-3.5-1.37-6.88-4.11-8.33-7.66c-1.18-2.91-0.93-7.74,2.79-8.58
				C356.91,250.37,355.58,245.54,352.44,246.26L352.44,246.26z"/>
		</g>
	</g>
	<g>
		<g>
			<path class="st0" d="M193.46,98.67c-3.73-5.72-9.91-9.1-16.62-9.84c-6.76-0.74-13.47,1.88-18.22,6.69
				c-4.85,4.91-7.68,11.89-7.32,18.81c0.37,7.1,3.69,13.94,8.88,18.78c2.99,2.79,6.48,4.66,10.18,6.31
				c3.6,1.61,7.38,3.13,10.25,5.92c2.31,2.24,5.85-1.29,3.54-3.54c-4.89-4.74-11.61-6.19-17.23-9.75
				c-4.96-3.14-8.62-8.27-10.04-13.96c-2.73-10.92,4.86-23.77,16.68-24.37c6.01-0.3,12.24,2.34,15.59,7.47
				C190.89,103.88,195.22,101.38,193.46,98.67L193.46,98.67z"/>
		</g>
	</g>
	<g>
		<g>
			<path class="st0" d="M181.81,142.97c-9.82,6.31-16.82,16-20.82,26.87c-2,5.44-3.19,11.17-3.65,16.94
				c-0.53,6.74-0.09,13.73,2.58,20.01c2.46,5.79,6.66,10.6,11.17,14.9c4.67,4.46,9.55,8.96,14.89,12.61
				c5.4,3.69,11.59,5.89,17.65,8.23c5.53,2.14,11.63,4.45,15.68,8.96c1.79,2,3.28,4.75,2.54,7.5c-0.67,2.52-2.87,4.12-5.09,5.26
				c-2.87,1.47-6.12,2.21-9.24,2.93c-4,0.93-8.05,1.59-12.14,1.99c-1.34,0.13-2.5,1.05-2.5,2.5c0,1.25,1.15,2.63,2.5,2.5
				c6.92-0.68,14.15-1.77,20.69-4.21c5.33-1.99,10.5-5.61,10.95-11.78c0.45-6.27-4.62-11.55-9.55-14.63
				c-5.49-3.43-11.71-5.47-17.69-7.84c-2.96-1.17-5.89-2.46-8.64-4.06c-2.88-1.67-5.5-3.71-8.02-5.87
				c-4.85-4.15-9.82-8.41-13.9-13.35c-4.06-4.93-6.43-10.68-6.92-17.05c-0.46-5.91,0.12-11.92,1.53-17.67
				c2.97-12.16,9.85-23.57,20.52-30.43C187.03,145.56,184.52,141.23,181.81,142.97L181.81,142.97z"/>
		</g>
	</g>
	<g>
		<g>
			<path class="st0" d="M195.82,269.62c-8.05-0.2-15.59,3.76-22.36,7.71c-6.22,3.62-12.09,7.86-17.53,12.57
				c-10.8,9.36-19.92,20.79-26.58,33.44c-7.42,14.08-12.42,30.28-10.26,46.32c1.82,13.47,9.51,26.53,21.71,33.07
				c5.46,2.92,13.03,5.45,18.99,2.56c3.2-1.55,4.87-5.08,4.02-8.54c-0.33-1.32-0.96-2.48-1.79-3.48c2.66-0.53,5.31-1.58,6.85-3.94
				c1.86-2.83,1.03-6.47-0.99-8.96c-0.09-0.11-0.19-0.2-0.28-0.3c1.31-0.54,2.51-1.37,3.51-2.59c2.79-3.43,2.06-7.92-1.27-10.68
				c-3.03-2.51-6.87-3.9-10.09-6.16c-3.45-2.42-6.48-5.41-9.09-8.71c-0.84-1.06-2.66-0.88-3.54,0c-0.26,0.26-0.44,0.55-0.55,0.85
				c0.05,0.2,0.1,0.39,0.13,0.59c1.04,1.3,1.9,2.83,2.62,4.33c0.58,0.45,1.06,1.05,1.37,1.78c1.27,1.28,2.62,2.48,4.04,3.6
				c2.88,2.28,5.96,4.07,9.18,5.8c1.72,0.92,4.87,2.53,3.75,4.83c-1.41,2.91-5.56,2.49-8.36,2.16c-0.02,0-0.03-0.01-0.05-0.01
				c0,0,0,0.01,0,0.01c-0.23-0.03-0.46-0.05-0.67-0.08c-2.85-0.32-3.32,4.2-0.66,4.91c2.02,0.54,4.48,1.06,5.96,2.67
				c1.03,1.12,1.61,2.88,0.19,3.92c-1.52,1.11-3.82,1.31-5.63,1.5c-1.91,0.2-3.82,0.24-5.73,0.16c-1.03-0.11-2.06-0.18-3.09-0.23
				c-1.35-0.08-2.5,1.2-2.5,2.5c0,1.48,1.15,2.35,2.5,2.5v0.01c0.16,0.01,0.33,0.02,0.49,0.03c0.77,0.08,1.54,0.14,2.31,0.17
				c2.19,0.23,4.42,0.79,5.77,2.51c1.55,1.97,0.81,3.91-1.17,4.63c-2.47,0.89-5.12,0.4-7.58-0.25c-2.76-0.74-5.35-1.88-7.78-3.37
				c-4.13-2.53-7.6-5.93-10.38-9.85c-4.26-3.64-6.31-9.74-6.81-15.99c-0.24-1.2-0.44-2.4-0.57-3.61c-1.58-14.5,2.95-29.05,9.6-41.79
				c5.96-11.41,13.89-21.7,23.35-30.42c5.32-4.91,11.11-9.27,17.29-13.04c6.47-3.94,13.87-8.33,21.69-8.13
				C199.04,274.7,199.04,269.7,195.82,269.62z"/>
		</g>
	</g>
	<g>
		<g>
			<path class="st0" d="M447.13,316.03c8.79,16.67,15.34,34.75,18.75,53.3c1.58,8.58,2.17,18.09-1.92,26.1
				c-1.59,3.11-3.76,6-6.59,8.08c-3.28,2.43-7.12,3.48-11.19,3.42c-2.58-0.04-5.1-0.47-7.61-1.05c-1.51-0.35-4.08-0.61-4.77-2.27
				c-0.62-1.48,0.08-3.26,1.23-4.29c1.48-1.31,3.54-1.76,5.46-1.85c3.25-0.15,3.18-4.72,0-5c-2.29-0.2-4.59-0.4-6.88-0.61
				c-0.94-0.08-1.91-0.11-2.84-0.25c-0.11-0.02-1.24-0.27-1.08-0.16c0.1,0.07-0.17,0.2,0.02-0.14c0.15-0.26,0.28-0.47,0.49-0.67
				c0.45-0.45,0.95-0.64,1.58-0.75c2.18-0.38,4.37-0.07,6.53-0.7c2.67-0.78,2.21-4.95-0.66-4.91c-3.09,0.05-7.56,0.31-9.34-2.84
				c-1.4-2.48,0.77-3.75,2.84-4.24c2.74-0.65,5.71,0,8.57,0.01c3.31,0.01,6.92-0.72,9.07-3.47c0.83-1.06,1.04-2.5,0-3.54
				c-0.86-0.86-2.7-1.07-3.54,0c-2.11,2.7-6.16,2.05-9.22,1.8c-3.45-0.29-7.34,0.02-10.19,2.19c-3.55,2.7-3.76,7.49-1.06,10.89
				c3.12,3.93,8.21,4.26,12.86,4.19c-0.22-1.64-0.44-3.27-0.66-4.91c-2.82,0.82-5.89-0.01-8.59,1.43c-2.23,1.19-4,3.71-3.63,6.31
				c0.44,3.1,3.31,4.2,6.05,4.5c3.22,0.35,6.46,0.57,9.68,0.86c0-1.67,0-3.33,0-5c-4.8,0.22-9.81,2.29-11.46,7.17
				c-0.71,2.09-0.58,4.54,0.45,6.5c1.18,2.26,3.47,3.42,5.83,4.07c5.2,1.44,10.75,2.25,16.1,1.26c4.39-0.81,8.42-3.13,11.57-6.26
				c7.02-6.96,9.43-16.95,9.01-26.57c-0.24-5.55-1.28-11.05-2.5-16.46c-1.17-5.17-2.55-10.3-4.14-15.36
				c-3.61-11.5-8.29-22.67-13.91-33.33C449.95,310.66,445.63,313.19,447.13,316.03L447.13,316.03z"/>
		</g>
	</g>
	<g>
		<g>
			<path class="st0" d="M422.49,345.87c-2.99-4.27-5.98-8.55-8.97-12.82c-0.75-1.07-2.22-1.67-3.42-0.9
				c-1.06,0.68-1.7,2.27-0.9,3.42c2.99,4.27,5.98,8.55,8.97,12.82c0.75,1.07,2.22,1.67,3.42,0.9
				C422.66,348.6,423.29,347.01,422.49,345.87L422.49,345.87z"/>
		</g>
	</g>
	<g>
		<g>
			<path class="st0" d="M200.02,330.22c3.5-1.76,6.46-4.49,8.61-7.76c0.72-1.1,0.25-2.81-0.9-3.42c-1.25-0.66-2.65-0.27-3.42,0.9
				c-0.27,0.42-0.56,0.82-0.86,1.22c0.13-0.17,0.26-0.34,0.39-0.51c-1.04,1.35-2.25,2.55-3.59,3.6c0.17-0.13,0.34-0.26,0.51-0.39
				c-1.02,0.78-2.11,1.47-3.26,2.04c-1.17,0.59-1.6,2.34-0.9,3.42C197.37,330.52,198.76,330.84,200.02,330.22L200.02,330.22z"/>
		</g>
	</g>
	<g>
		<g>
			<path class="st0" d="M457.86,402.87c-0.33,0.27-0.68,0.5-1.04,0.7c0.12-0.02,0.24-0.03,0.36-0.05c0.42-0.13,0.79-0.34,1.1-0.65
				c0.82-0.67,1.58-1.42,2.26-2.23c0.79-0.96,1.52-1.97,2.12-3.07c0.11-0.2,0.19-0.42,0.24-0.65
				C461.72,399.26,459.96,401.16,457.86,402.87z"/>
		</g>
	</g>
</g>
</svg>
